<svg data-v-423bf9ae="" xmlns="http://www.w3.org/2000/svg" viewBox="0 0 476 90" class="iconLeft"><!----><!----><!----><g data-v-423bf9ae="" id="e3fa5cd0-d4c7-4d1a-897e-255d4072194e" fill="white" transform="matrix(5.819592391658763,0,0,5.819592391658763,107.94387101251016,-38.48205116050873)"><path d="M2.38 16.54L2.38 16.54L2.38 16.54Q2.95 17.49 3.93 18.03L3.93 18.03L3.93 18.03Q4.91 18.57 6.06 18.57L6.06 18.57L6.06 18.57Q7.21 18.57 8.16 18.08L8.16 18.08L8.16 18.08Q9.11 17.59 9.67 16.70L9.67 16.70L9.67 16.70Q10.24 15.82 10.24 14.63L10.24 14.63L10.24 14.63Q10.24 13.45 9.68 12.48L9.68 12.48L9.68 12.48Q9.12 11.50 8.12 10.99L8.12 10.99L8.12 10.99Q7.13 10.48 5.91 10.48L5.91 10.48L5.91 10.48Q4.69 10.48 3.77 10.98L3.77 10.98L3.77 10.98Q2.84 11.47 2.32 12.38L2.32 12.38L2.32 12.38Q1.80 13.28 1.80 14.44L1.80 14.44L1.80 14.44Q1.80 15.59 2.38 16.54ZM0.31 14.89L0.31 14.89L0.31 14.89Q0.31 13.97 0.59 13.12L0.59 13.12L0.59 13.12Q0.88 12.26 1.40 11.63L1.40 11.63L1.40 11.63Q1.93 10.99 2.64 10.54L2.64 10.54L2.64 10.54Q4.07 9.64 6.06 9.64L6.06 9.64L6.06 9.64Q7.91 9.64 9.33 10.38L9.33 10.38L9.33 10.38Q10.87 11.18 11.44 12.56L11.44 12.56L11.44 12.56Q11.76 13.31 11.76 14.19L11.76 14.19L11.76 14.19Q11.76 15.79 11.01 17.00L11.01 17.00L11.01 17.00Q10.25 18.22 8.96 18.85L8.96 18.85L8.96 18.85Q7.66 19.49 6.01 19.49L6.01 19.49L6.01 19.49Q4.14 19.49 2.70 18.72L2.70 18.72L2.70 18.72Q0.31 17.45 0.31 14.89ZM13.72 14.98L13.72 14.98L13.72 14.98Q13.47 14.98 13.15 14.78L13.15 14.78L13.15 14.78Q12.83 14.58 12.83 14.26L12.83 14.26L12.83 14.26Q12.83 13.93 13.02 13.64L13.02 13.64L13.02 13.64Q13.20 13.36 13.49 13.18L13.49 13.18L13.49 13.18Q13.79 13.00 14.18 12.87L14.18 12.87L14.18 12.87Q14.89 12.65 15.71 12.65L15.71 12.65L15.71 12.65Q17.09 12.65 17.72 13.26L17.72 13.26L17.72 13.26Q18.34 13.87 18.34 15.28L18.34 15.28L18.33 17.29L18.33 17.29Q18.33 18.03 18.52 18.21L18.52 18.21L18.52 18.21Q18.57 18.26 18.82 18.33L18.82 18.33L18.82 18.33Q19.52 18.55 19.52 18.67L19.52 18.67L19.52 18.67Q19.52 19.39 18.05 19.39L18.05 19.39L18.05 19.39Q17.49 19.39 17.33 19.14L17.33 19.14L17.33 19.14Q17.16 18.89 17.14 18.25L17.14 18.25L17.14 18.25Q16.84 18.80 16.21 19.14L16.21 19.14L16.21 19.14Q15.58 19.48 14.86 19.48L14.86 19.48L14.86 19.48Q14.14 19.48 13.64 19.30L13.64 19.30L13.64 19.30Q13.15 19.11 12.83 18.70L12.83 18.70L12.83 18.70Q12.52 18.29 12.52 17.81L12.52 17.81L12.52 17.81Q12.52 17.33 12.63 17.04L12.63 17.04L12.63 17.04Q12.74 16.75 12.91 16.55L12.91 16.55L12.91 16.55Q13.07 16.35 13.35 16.19L13.35 16.19L13.35 16.19Q13.64 16.04 13.88 15.94L13.88 15.94L13.88 15.94Q14.13 15.85 14.52 15.78L14.52 15.78L14.52 15.78Q15.09 15.67 15.48 15.62L15.48 15.62L15.48 15.62Q15.87 15.58 15.89 15.57L15.89 15.57L15.89 15.57Q15.93 15.57 16.35 15.52L16.35 15.52L16.35 15.52Q16.78 15.48 17.03 15.34L17.03 15.34L17.03 15.34Q17.03 14.04 16.68 13.64L16.68 13.64L16.68 13.64Q16.37 13.30 15.67 13.30L15.67 13.30L15.67 13.30Q14.96 13.30 14.61 13.66L14.61 13.66L14.61 13.66Q14.26 14.02 14.26 14.80L14.26 14.80L14.27 14.95L14.27 14.95Q13.98 14.98 13.72 14.98ZM17.03 15.96L17.03 15.96L17.03 15.96Q16.56 16.13 15.98 16.19L15.98 16.19L15.98 16.19Q15.39 16.26 15.06 16.34L15.06 16.34L15.06 16.34Q14.72 16.43 14.50 16.56L14.50 16.56L14.50 16.56Q13.98 16.86 13.98 17.60L13.98 17.60L13.98 17.60Q13.98 18.77 15.35 18.77L15.35 18.77L15.35 18.77Q16.53 18.77 16.84 17.64L16.84 17.64L16.84 17.64Q17.03 17.00 17.03 15.96ZM22.20 19.32L22.20 19.32L21.61 19.33L21.61 19.33Q20.71 19.33 20.50 19.05L20.50 19.05L20.50 19.05Q20.41 18.93 20.41 18.75L20.41 18.75L20.41 18.75Q20.41 18.58 20.54 18.51L20.54 18.51L20.54 18.51Q20.68 18.44 20.85 18.44L20.85 18.44L20.85 18.44Q21.01 18.43 21.15 18.33L21.15 18.33L21.15 18.33Q21.29 18.23 21.29 18.01L21.29 18.01L21.29 10.79L21.29 10.79Q21.29 10.17 20.80 10.12L20.80 10.12L20.80 10.12Q20.75 10.12 20.68 10.11L20.68 10.11L20.68 10.11Q20.60 10.10 20.57 10.10L20.57 10.10L20.57 10.10Q20.54 10.10 20.48 10.09L20.48 10.09L20.48 10.09Q20.43 10.08 20.41 10.06L20.41 10.06L20.41 10.06Q20.38 10.05 20.36 10.03L20.36 10.03L20.36 10.03Q20.31 9.99 20.31 9.83L20.31 9.83L20.31 9.83Q20.31 9.67 20.51 9.50L20.51 9.50L20.51 9.50Q20.90 9.19 21.55 9.19L21.55 9.19L21.55 9.19Q22.24 9.19 22.36 9.27L22.36 9.27L22.36 9.27Q22.59 9.43 22.59 9.70L22.59 9.70L22.59 15.68L22.59 15.68Q22.85 15.49 23.77 14.82L23.77 14.82L23.77 14.82Q25.59 13.51 25.59 13.38L25.59 13.38L25.59 13.38Q25.59 13.23 25.07 13.06L25.07 13.06L25.07 13.06Q25.09 12.44 26.22 12.44L26.22 12.44L27.15 12.44L27.15 12.44Q28.87 12.44 28.87 12.63L28.87 12.63L28.87 12.63Q28.87 12.72 28.67 12.92L28.67 12.92L28.67 12.92Q28.48 13.11 28.27 13.23L28.27 13.23L28.27 13.23Q27.82 13.23 27.24 13.54L27.24 13.54L27.24 13.54Q26.65 13.84 25.80 14.48L25.80 14.48L24.62 15.35L26.76 17.62L26.76 17.62Q27.15 18.03 27.47 18.24L27.47 18.24L27.47 18.24Q27.79 18.46 28.05 18.52L28.05 18.52L28.05 18.52Q28.32 18.59 28.45 18.62L28.45 18.62L28.45 18.62Q28.59 18.65 28.65 18.66L28.65 18.66L28.65 18.66Q28.71 18.68 28.81 18.71L28.81 18.71L28.81 18.71Q28.90 18.75 28.95 18.79L28.95 18.79L28.95 18.79Q29.07 18.90 29.07 19.06L29.07 19.06L29.07 19.06Q29.07 19.39 28.01 19.39L28.01 19.39L27.68 19.39L27.68 19.39Q27.03 19.39 26.79 19.33L26.79 19.33L26.79 19.33Q26.54 19.27 26.27 19.01L26.27 19.01L26.27 19.01Q25.25 18.05 23.75 15.89L23.75 15.89L22.59 16.68L22.59 18.01L22.59 18.01Q22.59 18.41 23.03 18.43L23.03 18.43L23.03 18.43Q23.47 18.46 23.47 18.79L23.47 18.79L23.47 18.79Q23.47 19.16 23.06 19.25L23.06 19.25L23.06 19.25Q22.74 19.32 22.20 19.32ZM36.51 19.32L36.51 19.32L35.92 19.33L35.92 19.33Q35.03 19.33 34.82 19.05L34.82 19.05L34.82 19.05Q34.72 18.93 34.72 18.75L34.72 18.75L34.72 18.75Q34.72 18.58 34.86 18.51L34.86 18.51L34.86 18.51Q34.99 18.44 35.16 18.44L35.16 18.44L35.16 18.44Q35.33 18.43 35.46 18.33L35.46 18.33L35.46 18.33Q35.60 18.23 35.60 18.01L35.60 18.01L35.61 16.02L35.61 16.02Q35.61 14.77 35.31 14.17L35.31 14.17L35.31 14.17Q34.98 13.50 33.94 13.50L33.94 13.50L33.94 13.50Q32.85 13.50 32.41 14.19L32.41 14.19L32.41 14.19Q32.01 14.83 32.01 16.06L32.01 16.06L32.01 18.01L32.01 18.01Q32.01 18.41 32.45 18.43L32.45 18.43L32.45 18.43Q32.89 18.46 32.89 18.79L32.89 18.79L32.89 18.79Q32.89 19.16 32.48 19.25L32.48 19.25L32.48 19.25Q32.18 19.32 31.62 19.32L31.62 19.32L31.04 19.33L31.04 19.33Q30.14 19.33 29.93 19.05L29.93 19.05L29.93 19.05Q29.83 18.93 29.83 18.75L29.83 18.75L29.83 18.75Q29.83 18.58 29.97 18.51L29.97 18.51L29.97 18.51Q30.11 18.44 30.27 18.44L30.27 18.44L30.27 18.44Q30.44 18.43 30.58 18.33L30.58 18.33L30.58 18.33Q30.71 18.23 30.71 18.01L30.71 18.01L30.71 10.57L30.71 10.57Q30.71 10.17 30.22 10.09L30.22 10.09L30.22 10.09Q29.88 10.04 29.81 9.97L29.81 9.97L29.81 9.97Q29.74 9.91 29.74 9.75L29.74 9.75L29.74 9.75Q29.74 9.60 29.88 9.48L29.88 9.48L29.88 9.48Q30.02 9.36 30.26 9.30L30.26 9.30L30.26 9.30Q30.67 9.19 31.17 9.19L31.17 9.19L31.17 9.19Q32.02 9.19 32.02 9.70L32.02 9.70L32.02 13.67L32.02 13.67Q32.95 12.62 34.37 12.62L34.37 12.62L34.37 12.62Q35.79 12.62 36.35 13.35L36.35 13.35L36.35 13.35Q36.91 14.08 36.91 15.55L36.91 15.55L36.90 18.01L36.90 18.01Q36.90 18.41 37.34 18.43L37.34 18.43L37.34 18.43Q37.78 18.46 37.78 18.79L37.78 18.79L37.78 18.79Q37.78 19.16 37.37 19.25L37.37 19.25L37.37 19.25Q37.06 19.32 36.51 19.32ZM39.30 18.57L39.30 18.57L39.30 18.57Q38.36 17.64 38.36 16.11L38.36 16.11L38.36 16.11Q38.36 14.57 39.31 13.61L39.31 13.61L39.31 13.61Q40.26 12.65 41.74 12.65L41.74 12.65L41.74 12.65Q42.91 12.65 43.71 13.40L43.71 13.40L43.71 13.40Q44.52 14.16 44.52 15.30L44.52 15.30L44.52 15.30Q44.52 15.85 43.64 15.85L43.64 15.85L39.68 15.85L39.68 15.85Q39.70 16.96 40.40 17.72L40.40 17.72L40.40 17.72Q41.10 18.48 42.18 18.48L42.18 18.48L42.18 18.48Q42.89 18.48 43.56 18.06L43.56 18.06L43.56 18.06Q43.91 17.84 44.01 17.84L44.01 17.84L44.01 17.84Q44.11 17.84 44.24 17.94L44.24 17.94L44.24 17.94Q44.37 18.04 44.37 18.18L44.37 18.18L44.37 18.18Q44.37 18.56 43.88 18.88L43.88 18.88L43.88 18.88Q43.40 19.20 42.82 19.35L42.82 19.35L42.82 19.35Q42.24 19.50 41.80 19.50L41.80 19.50L41.80 19.50Q40.25 19.50 39.30 18.57ZM43.26 15.13L43.26 15.13L43.26 15.13Q43.24 14.35 42.85 13.86L42.85 13.86L42.85 13.86Q42.45 13.36 41.69 13.36L41.69 13.36L41.69 13.36Q40.93 13.36 40.36 13.91L40.36 13.91L40.36 13.91Q39.79 14.46 39.75 15.16L39.75 15.16L41.35 15.16L41.35 15.16Q42.42 15.16 43.26 15.13ZM46.56 14.98L46.56 14.98L46.56 14.98Q46.31 14.98 45.99 14.78L45.99 14.78L45.99 14.78Q45.67 14.58 45.67 14.26L45.67 14.26L45.67 14.26Q45.67 13.93 45.86 13.64L45.86 13.64L45.86 13.64Q46.04 13.36 46.33 13.18L46.33 13.18L46.33 13.18Q46.63 13.00 47.02 12.87L47.02 12.87L47.02 12.87Q47.73 12.65 48.55 12.65L48.55 12.65L48.55 12.65Q49.93 12.65 50.56 13.26L50.56 13.26L50.56 13.26Q51.18 13.87 51.18 15.28L51.18 15.28L51.17 17.29L51.17 17.29Q51.17 18.03 51.36 18.21L51.36 18.21L51.36 18.21Q51.41 18.26 51.66 18.33L51.66 18.33L51.66 18.33Q52.36 18.55 52.36 18.67L52.36 18.67L52.36 18.67Q52.36 19.39 50.89 19.39L50.89 19.39L50.89 19.39Q50.33 19.39 50.17 19.14L50.17 19.14L50.17 19.14Q50.00 18.89 49.98 18.25L49.98 18.25L49.98 18.25Q49.68 18.80 49.05 19.14L49.05 19.14L49.05 19.14Q48.42 19.48 47.70 19.48L47.70 19.48L47.70 19.48Q46.98 19.48 46.48 19.30L46.48 19.30L46.48 19.30Q45.99 19.11 45.67 18.70L45.67 18.70L45.67 18.70Q45.36 18.29 45.36 17.81L45.36 17.81L45.36 17.81Q45.36 17.33 45.47 17.04L45.47 17.04L45.47 17.04Q45.58 16.75 45.75 16.55L45.75 16.55L45.75 16.55Q45.91 16.35 46.19 16.19L46.19 16.19L46.19 16.19Q46.48 16.04 46.72 15.94L46.72 15.94L46.72 15.94Q46.97 15.85 47.36 15.78L47.36 15.78L47.36 15.78Q47.93 15.67 48.32 15.62L48.32 15.62L48.32 15.62Q48.71 15.58 48.73 15.57L48.73 15.57L48.73 15.57Q48.77 15.57 49.19 15.52L49.19 15.52L49.19 15.52Q49.62 15.48 49.87 15.34L49.87 15.34L49.87 15.34Q49.87 14.04 49.52 13.64L49.52 13.64L49.52 13.64Q49.21 13.30 48.51 13.30L48.51 13.30L48.51 13.30Q47.80 13.30 47.45 13.66L47.45 13.66L47.45 13.66Q47.10 14.02 47.10 14.80L47.10 14.80L47.11 14.95L47.11 14.95Q46.82 14.98 46.56 14.98ZM49.87 15.96L49.87 15.96L49.87 15.96Q49.40 16.13 48.82 16.19L48.82 16.19L48.82 16.19Q48.23 16.26 47.90 16.34L47.90 16.34L47.90 16.34Q47.56 16.43 47.34 16.56L47.34 16.56L47.34 16.56Q46.82 16.86 46.82 17.60L46.82 17.60L46.82 17.60Q46.82 18.77 48.19 18.77L48.19 18.77L48.19 18.77Q49.37 18.77 49.68 17.64L49.68 17.64L49.68 17.64Q49.87 17.00 49.87 15.96ZM55.05 19.32L55.05 19.32L54.46 19.33L54.46 19.33Q53.57 19.33 53.35 19.05L53.35 19.05L53.35 19.05Q53.26 18.93 53.26 18.75L53.26 18.75L53.26 18.75Q53.26 18.58 53.40 18.51L53.40 18.51L53.40 18.51Q53.53 18.44 53.70 18.44L53.70 18.44L53.70 18.44Q53.87 18.43 54.00 18.33L54.00 18.33L54.00 18.33Q54.14 18.23 54.14 18.01L54.14 18.01L54.14 14.64L54.14 14.64Q54.14 14.03 53.99 13.88L53.99 13.88L53.99 13.88Q53.85 13.74 53.75 13.70L53.75 13.70L53.75 13.70Q53.65 13.66 53.44 13.60L53.44 13.60L53.44 13.60Q53.22 13.54 53.09 13.47L53.09 13.47L53.09 13.47Q52.96 13.41 52.96 13.29L52.96 13.29L52.96 13.29Q52.96 12.74 54.43 12.74L54.43 12.74L54.43 12.74Q55.05 12.74 55.22 12.96L55.22 12.96L55.22 12.96Q55.38 13.17 55.38 13.95L55.38 13.95L55.38 13.95Q55.62 13.36 56.15 13.03L56.15 13.03L56.15 13.03Q56.69 12.69 57.25 12.69L57.25 12.69L57.25 12.69Q57.82 12.69 58.18 12.94L58.18 12.94L58.18 12.94Q58.55 13.18 58.55 13.55L58.55 13.55L58.55 13.55Q58.55 13.92 58.31 14.15L58.31 14.15L58.31 14.15Q58.07 14.37 57.72 14.37L57.72 14.37L57.72 14.37Q57.37 14.37 57.12 14.18L57.12 14.18L57.12 14.18Q56.88 14 56.80 13.71L56.80 13.71L56.80 13.71Q56.62 13.68 56.51 13.68L56.51 13.68L56.51 13.68Q55.44 13.68 55.44 16.13L55.44 16.13L55.44 18.01L55.44 18.01Q55.44 18.41 55.88 18.43L55.88 18.43L55.88 18.43Q56.32 18.46 56.32 18.79L56.32 18.79L56.32 18.79Q56.32 19.16 55.91 19.25L55.91 19.25L55.91 19.25Q55.60 19.32 55.05 19.32ZM59.70 17.48L59.70 13.66L59.28 13.67L59.28 13.67Q59.03 13.67 58.91 13.62L58.91 13.62L58.91 13.62Q58.80 13.57 58.80 13.42L58.80 13.42L58.80 13.42Q58.80 13.26 58.93 13.14L58.93 13.14L58.93 13.14Q59.06 13.01 59.23 12.94L59.23 12.94L59.23 12.94Q59.71 12.75 59.80 12.62L59.80 12.62L59.80 12.62Q59.89 12.48 60.07 12.03L60.07 12.03L60.07 12.03Q60.53 10.90 60.84 10.90L60.84 10.90L60.84 10.90Q61.00 10.90 61.02 11.24L61.02 11.24L61.02 11.24Q61.04 11.58 61.05 11.76L61.05 11.76L61.05 11.76Q61.05 11.94 61.04 12.29L61.04 12.29L61.04 12.29Q61.04 12.64 61.04 12.78L61.04 12.78L62.67 12.78L62.67 12.78Q62.90 12.78 63.07 12.90L63.07 12.90L63.07 12.90Q63.23 13.02 63.23 13.22L63.23 13.22L63.23 13.22Q63.23 13.42 63.07 13.53L63.07 13.53L63.07 13.53Q62.91 13.64 62.67 13.64L62.67 13.64L61.04 13.64L61.03 17.13L61.03 17.13Q61.03 18.61 61.78 18.61L61.78 18.61L61.78 18.61Q61.98 18.61 62.38 18.49L62.38 18.49L62.38 18.49Q62.79 18.36 62.91 18.36L62.91 18.36L62.91 18.36Q63.19 18.36 63.19 18.68L63.19 18.68L63.19 18.68Q63.19 18.94 62.53 19.19L62.53 19.19L62.53 19.19Q61.87 19.44 61.18 19.44L61.18 19.44L61.18 19.44Q60.48 19.44 60.09 18.90L60.09 18.90L60.09 18.90Q59.70 18.36 59.70 17.48L59.70 17.48Z"></path></g><!----><g data-v-423bf9ae="" id="e927fe04-b7dd-4528-b4c6-9af0703efe20" transform="matrix(1.1877737981076137,0,0,1.1877737981076137,-12.940701764994465,-13.180053910637426)" stroke="none" fill="white"><path d="M86.146 49.483c.302-9.302-3.413-18.68-10.219-25.772-7.143-7.443-16.722-11.543-26.971-11.543l-.073.001a33.018 33.018 0 0 0-6.004-.559c-8.743 0-16.836 3.578-22.789 10.073-6.684 7.295-9.853 17.275-8.925 28.111.492 21.787 14.591 37.589 33.551 37.588 1.378 0 2.786-.085 4.187-.252 13.349-1.07 24.871-6.692 31.616-15.429 5.041-6.528 6.984-14.206 5.627-22.218zm-9.664 19.102c-5.876 7.611-16.094 12.519-28.034 13.466l-.103.01a30.382 30.382 0 0 1-3.629.221c-16.35.001-28.051-13.437-28.454-32.679l-.009-.169c-.825-9.427 1.874-18.059 7.598-24.305C28.826 19.7 35.584 16.71 42.88 16.71c1.743 0 3.522.173 5.287.513l.25.049.539-.004c8.847 0 17.118 3.543 23.291 9.974 5.917 6.166 9.122 14.297 8.792 22.31l-.011.278.049.275c1.189 6.656-.4 13.047-4.595 18.48zM49.02 25.65a19.02 19.02 0 0 0-3.316-.296c-11.428 0-20.886 10.885-21.085 24.263l-.002.142.013.141c1.294 13.416 9.878 22.064 23.56 23.749a16.68 16.68 0 0 0 3.907.464c5.015 0 10.096-2.309 13.941-6.335 4.537-4.751 6.957-11.4 6.643-18.165-.229-14.13-8.191-22.192-23.661-23.963zm13.33 38.607c-3.645 3.818-8.646 5.525-13.077 4.408l-.322-.06c-11.298-1.343-18.122-8.107-19.23-19.052.219-10.544 7.365-19.098 15.984-19.098.82 0 1.657.077 2.489.228l.171.026c12.924 1.457 19.031 7.491 19.22 19.065.251 5.455-1.656 10.735-5.235 14.483zM48.795 39.415l-.307-.017-.302.056c-4.92.912-10.585 3.448-9.783 10.343-.01 2.649 1.135 5.405 3.088 7.411 1.749 1.796 3.95 2.786 6.197 2.786a7.68 7.68 0 0 0 1.283-.108c5.519-.451 9.589-4.575 9.921-10.075l.016-.272-.042-.27c-.877-5.69-4.83-9.557-10.071-9.854zm-.323 15.393l-.295.037a2.622 2.622 0 0 1-.49.046c-1.16 0-2.091-.779-2.543-1.243-1.032-1.06-1.676-2.601-1.641-3.925l.005-.202-.027-.201c-.244-1.845-.028-3.732 5.311-4.792 2.591.272 4.431 2.203 4.986 5.239-.286 2.825-2.388 4.836-5.306 5.041z"></path></g><!----></svg>