<svg data-v-423bf9ae="" xmlns="http://www.w3.org/2000/svg" viewBox="0 0 59.831960407540066 60" class="icon"><!----><!----><!----><!----><g data-v-423bf9ae="" id="34c04050-a47a-423c-aa19-46ff734d22ad" transform="matrix(0.7918491987384092,0,0,0.7918491987384092,-8.715484488125384,-9.193369680659323)" stroke="none" fill="black"><path d="M86.146 49.483c.302-9.302-3.413-18.68-10.219-25.772-7.143-7.443-16.722-11.543-26.971-11.543l-.073.001a33.018 33.018 0 0 0-6.004-.559c-8.743 0-16.836 3.578-22.789 10.073-6.684 7.295-9.853 17.275-8.925 28.111.492 21.787 14.591 37.589 33.551 37.588 1.378 0 2.786-.085 4.187-.252 13.349-1.07 24.871-6.692 31.616-15.429 5.041-6.528 6.984-14.206 5.627-22.218zm-9.664 19.102c-5.876 7.611-16.094 12.519-28.034 13.466l-.103.01a30.382 30.382 0 0 1-3.629.221c-16.35.001-28.051-13.437-28.454-32.679l-.009-.169c-.825-9.427 1.874-18.059 7.598-24.305C28.826 19.7 35.584 16.71 42.88 16.71c1.743 0 3.522.173 5.287.513l.25.049.539-.004c8.847 0 17.118 3.543 23.291 9.974 5.917 6.166 9.122 14.297 8.792 22.31l-.011.278.049.275c1.189 6.656-.4 13.047-4.595 18.48zM49.02 25.65a19.02 19.02 0 0 0-3.316-.296c-11.428 0-20.886 10.885-21.085 24.263l-.002.142.013.141c1.294 13.416 9.878 22.064 23.56 23.749a16.68 16.68 0 0 0 3.907.464c5.015 0 10.096-2.309 13.941-6.335 4.537-4.751 6.957-11.4 6.643-18.165-.229-14.13-8.191-22.192-23.661-23.963zm13.33 38.607c-3.645 3.818-8.646 5.525-13.077 4.408l-.322-.06c-11.298-1.343-18.122-8.107-19.23-19.052.219-10.544 7.365-19.098 15.984-19.098.82 0 1.657.077 2.489.228l.171.026c12.924 1.457 19.031 7.491 19.22 19.065.251 5.455-1.656 10.735-5.235 14.483zM48.795 39.415l-.307-.017-.302.056c-4.92.912-10.585 3.448-9.783 10.343-.01 2.649 1.135 5.405 3.088 7.411 1.749 1.796 3.95 2.786 6.197 2.786a7.68 7.68 0 0 0 1.283-.108c5.519-.451 9.589-4.575 9.921-10.075l.016-.272-.042-.27c-.877-5.69-4.83-9.557-10.071-9.854zm-.323 15.393l-.295.037a2.622 2.622 0 0 1-.49.046c-1.16 0-2.091-.779-2.543-1.243-1.032-1.06-1.676-2.601-1.641-3.925l.005-.202-.027-.201c-.244-1.845-.028-3.732 5.311-4.792 2.591.272 4.431 2.203 4.986 5.239-.286 2.825-2.388 4.836-5.306 5.041z"></path></g><!----></svg>